<!DOCTYPE svg PUBLIC "-//W3C//DTD SVG 1.1//EN" "http://www.w3.org/Graphics/SVG/1.1/DTD/svg11.dtd">
<!-- Uploaded to: SVG Repo, www.svgrepo.com, Transformed by: SVG Repo Mixer Tools -->
<svg fill="#ffffff" version="1.1" id="Capa_1" xmlns="http://www.w3.org/2000/svg" xmlns:xlink="http://www.w3.org/1999/xlink" width="800px" height="800px" viewBox="0 0 72.773 72.773" xml:space="preserve" stroke="#ffffff">
<g id="SVGRepo_bgCarrier" stroke-width="0"/>
<g id="SVGRepo_tracerCarrier" stroke-linecap="round" stroke-linejoin="round"/>
<g id="SVGRepo_iconCarrier"> <g> <path d="M62.84,45.82V15.274L36.384,0L9.933,15.274V45.82l25.283,14.599v8.982L11.685,55.813l-1.168,2.023l25.867,14.937 l25.872-14.937l-1.168-2.023L37.552,69.401v-8.982L62.84,45.82z M37.552,3.371l21.915,12.65L37.552,28.574V3.371z M35.216,28.574 L13.303,16.021L35.216,3.368V28.574z M34.034,30.59L12.269,43.058V18.121L34.034,30.59z M60.504,18.119v24.944L38.733,30.59 L60.504,18.119z M13.381,45.11l23.006-13.178L59.396,45.11L37.555,57.718V42.095h-2.336v15.623L13.381,45.11z"/> </g> </g>
</svg>